{
  "accessors": [
    {
      "bufferView": 0,
      "componentType": 5125,
      "count": 34602,
      "type": "SCALAR"
    },
    {
      "bufferView": 1,
      "componentType": 5126,
      "count": 10399,
      "max": [
        0.947410702705383,
        0.605096161365509,
        0.473546802997589
      ],
      "min": [
        -0.942363381385803,
        -0.605096161365509,
        -0.349320024251938
      ],
      "type": "VEC3"
    },
    {
      "bufferView": 2,
      "componentType": 5126,
      "count": 10399,
      "type": "VEC3"
    },
    {
      "bufferView": 3,
      "componentType": 5126,
      "count": 10399,
      "type": "VEC2"
    }
  ],
  "asset": {
    "generator": "Substance Painter 2018.1.1",
    "version": "2.0"
  },
  "bufferViews": [
    {
      "buffer": 0,
      "byteLength": 138408,
      "target": 34963
    },
    {
      "buffer": 0,
      "byteLength": 124788,
      "byteOffset": 138408,
      "target": 34962
    },
    {
      "buffer": 0,
      "byteLength": 124788,
      "byteOffset": 263196,
      "target": 34962
    },
    {
      "buffer": 0,
      "byteLength": 83192,
      "byteOffset": 387984,
      "target": 34962
    }
  ],
  "buffers": [
    {
      "byteLength": 471176,
      "uri": "Bicycle_Track_Bike_01.bin"
    }
  ],
  "images": [
    {
      "uri": "Bicycle_Track_Bike_01_baseColor.png"
    },
    {
      "uri": "Bicycle_Track_Bike_01_occlusionRoughnessMetallic.png"
    },
    {
      "uri": "Bicycle_Track_Bike_01_normal.png"
    }
  ],
  "materials": [
    {
      "alphaMode": "OPAQUE",
      "name": "Bicycle_Track_Bike_01",
      "normalTexture": {
        "index": 2
      },
      "occlusionTexture": {
        "index": 1
      },
      "pbrMetallicRoughness": {
        "baseColorTexture": {
          "index": 0
        },
        "metallicRoughnessTexture": {
          "index": 1
        }
      }
    }
  ],
  "meshes": [
    {
      "name": "Simplygon_Proxy_LOD1",
      "primitives": [
        {
          "attributes": {
            "NORMAL": 2,
            "POSITION": 1,
            "TEXCOORD_0": 3
          },
          "indices": 0,
          "material": 0,
          "mode": 4
        }
      ]
    }
  ],
  "nodes": [
    {
      "children": [
        1
      ],
      "name": "root",
      "scale": [
        87.5521774291992,
        87.5521774291992,
        87.5521774291992
      ],
      "translation": [
        0.249124526977539,
        54.8846817016602,
        1.00352478027344
      ]
    },
    {
      "children": [
        2
      ],
      "name": "Simplygon_Proxy_LOD1"
    },
    {
      "mesh": 0,
      "name": "Simplygon_Proxy_LOD1"
    }
  ],
  "samplers": [
    {
      "magFilter": 9729,
      "minFilter": 9985,
      "wrapS": 10497,
      "wrapT": 10497
    }
  ],
  "scene": 0,
  "scenes": [
    {
      "name": "Scene",
      "nodes": [
        0
      ]
    }
  ],
  "textures": [
    {
      "sampler": 0,
      "source": 0
    },
    {
      "sampler": 0,
      "source": 1
    },
    {
      "sampler": 0,
      "source": 2
    }
  ]
}